<?xml version="1.0" encoding="UTF-8"?>
    <svg xmlns="http://www.w3.org/2000/svg" version="2.0" width="500" height="180">
        <text x="250.0" y="30" text-anchor="middle" font-size="20">
            Perfil de Altimetría del Circuito
        </text>
        
        <polyline points="50.0,90.0 52.50378019486478,71.2 56.588826864638975,84.6 61.27155847973637,84.6 66.25443188259389,86.2 82.83888980021406,75.6 85.42907444913101,61.599999999999994 90.34113517911871,60.0 98.41442954382671,60.0 105.23908209884866,87.75999999999999 107.76170236264208,72.4 111.06261237045422,60.0 115.64594638051418,66.2 120.79448245843409,60.0 127.19360931868789,60.400000000000006 132.08682997974694,84.80000000000001 140.70323805563993,95.0 147.5980536259824,89.2 170.55630175943506,84.6 188.7356689604992,53.8 193.79130400887433,60.19999999999999 206.75651971954287,73.0 210.37901021424085,84.4 216.78723228018433,75.4 222.55424234500393,75.19999999999999 227.8944273999568,75.19999999999999 244.53280689416593,63.60000000000001 257.6474438411652,61.39999999999999 270.45739139755955,72.4 295.89798102675127,84.80000000000001 300.27927153899,84.80000000000001 305.599966867465,80.8 310.27945019481604,81.8 314.9147568088172,72.4 323.9183607840717,78.0 337.14863677484004,72.4 347.6107219481931,74.4 368.46018167673367,72.4 377.27083735985667,72.4 384.091591969583,79.0 411.59029671484416,58.60000000000001 450.0,83.2 450,130 50,130" fill="lightblue" stroke="blue" stroke-width="2"/>

        <line x1="50" y1="130" x2="450" y2="130"
            stroke="black" stroke-width="2"/>
        <text x="250.0" y="160" text-anchor="middle">
            Distancia (m)
        </text>
        
        <line x1="50" y1="50" x2="50" y2="130"
            stroke="black" stroke-width="2"/>
        <text x="20" y="90.0" transform="rotate(-90,20,90.0)" text-anchor="middle">
            Altitud (m)
        </text>
        
        <!-- Marcas de escala -->
        <text x="50" y="150" text-anchor="middle">
            0
        </text>
        <text x="450" y="150" text-anchor="middle">
            6157m
        </text>
        <text x="20" y="130" text-anchor="end">
            0m
        </text>
        <text x="20" y="50" text-anchor="end">
            4m
        </text>
    </svg>